<svg xmlns="http://www.w3.org/2000/svg" viewBox="-97.65 -20 407.42 483.52" width="407.42" height="483.52">
  <defs>
    <linearGradient id="angee-fcd34de6b4009a7d0a-top" x1="0%" y1="0%" x2="0%" y2="100%">
      <stop offset="0%" stop-color="#65541f"/>
      <stop offset="100%" stop-color="#FCD34D"/>
    </linearGradient>
    <linearGradient id="angee-fcd34de6b4009a7d0a-right" x1="100%" y1="0%" x2="0%" y2="100%">
      <stop offset="0%" stop-color="#453600"/>
      <stop offset="55%" stop-color="#E6B400"/>
      <stop offset="100%" stop-color="#ecc740"/>
    </linearGradient>
    <linearGradient id="angee-fcd34de6b4009a7d0a-left" x1="0%" y1="0%" x2="100%" y2="100%">
      <stop offset="0%" stop-color="#271f03"/>
      <stop offset="60%" stop-color="#9A7D0A"/>
      <stop offset="100%" stop-color="#c2b16c"/>
    </linearGradient>
  </defs>
  
  <polygon points="0,173.21 96.59,186.15 70.71,234.44 -25.88,221.5" fill="url(#angee-fcd34de6b4009a7d0a-top)"/>
  <polygon points="96.59,186.15 96.59,272.75 70.71,321.04 70.71,234.44" fill="url(#angee-fcd34de6b4009a7d0a-right)"/>
  <polygon points="-25.88,221.5 70.71,234.44 70.71,321.04 -25.88,308.1" fill="url(#angee-fcd34de6b4009a7d0a-left)"/>
  <polygon points="193.19,199.09 289.78,212.03 263.9,260.32 167.3,247.38" fill="url(#angee-fcd34de6b4009a7d0a-top)"/>
  <polygon points="289.78,212.03 289.78,298.63 263.9,346.93 263.9,260.32" fill="url(#angee-fcd34de6b4009a7d0a-right)"/>
  <polygon points="167.3,247.38 263.9,260.32 263.9,346.93 167.3,333.99" fill="url(#angee-fcd34de6b4009a7d0a-left)"/>
  <polygon points="-25.88,221.5 70.71,234.44 44.83,282.74 -51.76,269.8" fill="url(#angee-fcd34de6b4009a7d0a-top)"/>
  <polygon points="70.71,234.44 70.71,321.04 44.83,369.34 44.83,282.74" fill="url(#angee-fcd34de6b4009a7d0a-right)"/>
  <polygon points="-51.76,269.8 44.83,282.74 44.83,369.34 -51.76,356.4" fill="url(#angee-fcd34de6b4009a7d0a-left)"/>
  <polygon points="193.19,112.48 289.78,125.43 263.9,173.72 167.3,160.78" fill="url(#angee-fcd34de6b4009a7d0a-top)"/>
  <polygon points="289.78,125.43 289.78,212.03 263.9,260.32 263.9,173.72" fill="url(#angee-fcd34de6b4009a7d0a-right)"/>
  <polygon points="167.3,160.78 263.9,173.72 263.9,260.32 167.3,247.38" fill="url(#angee-fcd34de6b4009a7d0a-left)"/>
  <polygon points="0,0 96.59,12.94 70.71,61.24 -25.88,48.3" fill="url(#angee-fcd34de6b4009a7d0a-top)"/>
  <polygon points="96.59,12.94 96.59,99.54 70.71,147.84 70.71,61.24" fill="url(#angee-fcd34de6b4009a7d0a-right)"/>
  <polygon points="-25.88,48.3 70.71,61.24 70.71,147.84 -25.88,134.9" fill="url(#angee-fcd34de6b4009a7d0a-left)"/>
  <polygon points="96.59,12.94 193.19,25.88 167.3,74.18 70.71,61.24" fill="url(#angee-fcd34de6b4009a7d0a-top)"/>
  <polygon points="193.19,25.88 193.19,112.48 167.3,160.78 167.3,74.18" fill="url(#angee-fcd34de6b4009a7d0a-right)"/>
  <polygon points="70.71,61.24 167.3,74.18 167.3,160.78 70.71,147.84" fill="url(#angee-fcd34de6b4009a7d0a-left)"/>
  <polygon points="193.19,25.88 289.78,38.82 263.9,87.12 167.3,74.18" fill="url(#angee-fcd34de6b4009a7d0a-top)"/>
  <polygon points="289.78,38.82 289.78,125.43 263.9,173.72 263.9,87.12" fill="url(#angee-fcd34de6b4009a7d0a-right)"/>
  <polygon points="167.3,74.18 263.9,87.12 263.9,173.72 167.3,160.78" fill="url(#angee-fcd34de6b4009a7d0a-left)"/>
  <polygon points="-51.76,269.8 44.83,282.74 18.95,331.03 -77.65,318.09" fill="url(#angee-fcd34de6b4009a7d0a-top)"/>
  <polygon points="44.83,282.74 44.83,369.34 18.95,417.64 18.95,331.03" fill="url(#angee-fcd34de6b4009a7d0a-right)"/>
  <polygon points="-77.65,318.09 18.95,331.03 18.95,417.64 -77.65,404.7" fill="url(#angee-fcd34de6b4009a7d0a-left)"/>
  <polygon points="44.83,282.74 141.42,295.68 115.54,343.98 18.95,331.03" fill="url(#angee-fcd34de6b4009a7d0a-top)"/>
  <polygon points="141.42,295.68 141.42,382.28 115.54,430.58 115.54,343.98" fill="url(#angee-fcd34de6b4009a7d0a-right)"/>
  <polygon points="18.95,331.03 115.54,343.98 115.54,430.58 18.95,417.64" fill="url(#angee-fcd34de6b4009a7d0a-left)"/>
  <polygon points="141.42,295.68 238.01,308.62 212.13,356.92 115.54,343.98" fill="url(#angee-fcd34de6b4009a7d0a-top)"/>
  <polygon points="238.01,308.62 238.01,395.22 212.13,443.52 212.13,356.92" fill="url(#angee-fcd34de6b4009a7d0a-right)"/>
  <polygon points="115.54,343.98 212.13,356.92 212.13,443.52 115.54,430.58" fill="url(#angee-fcd34de6b4009a7d0a-left)"/>
  <polygon points="-51.76,183.2 44.83,196.14 18.95,244.43 -77.65,231.49" fill="url(#angee-fcd34de6b4009a7d0a-top)"/>
  <polygon points="44.83,196.14 44.83,282.74 18.95,331.03 18.95,244.43" fill="url(#angee-fcd34de6b4009a7d0a-right)"/>
  <polygon points="-77.65,231.49 18.95,244.43 18.95,331.03 -77.65,318.09" fill="url(#angee-fcd34de6b4009a7d0a-left)"/>
  <polygon points="167.3,74.18 263.9,87.12 238.01,135.42 141.42,122.47" fill="url(#angee-fcd34de6b4009a7d0a-top)"/>
  <polygon points="263.9,87.12 263.9,173.72 238.01,222.02 238.01,135.42" fill="url(#angee-fcd34de6b4009a7d0a-right)"/>
  <polygon points="141.42,122.47 238.01,135.42 238.01,222.02 141.42,209.08" fill="url(#angee-fcd34de6b4009a7d0a-left)"/>
  <polygon points="-51.76,96.59 44.83,109.53 18.95,157.83 -77.65,144.89" fill="url(#angee-fcd34de6b4009a7d0a-top)"/>
  <polygon points="44.83,109.53 44.83,196.14 18.95,244.43 18.95,157.83" fill="url(#angee-fcd34de6b4009a7d0a-right)"/>
  <polygon points="-77.65,144.89 18.95,157.83 18.95,244.43 -77.65,231.49" fill="url(#angee-fcd34de6b4009a7d0a-left)"/>
  <polygon points="141.42,122.47 238.01,135.42 212.13,183.71 115.54,170.77" fill="url(#angee-fcd34de6b4009a7d0a-top)"/>
  <polygon points="238.01,135.42 238.01,222.02 212.13,270.31 212.13,183.71" fill="url(#angee-fcd34de6b4009a7d0a-right)"/>
  <polygon points="115.54,170.77 212.13,183.71 212.13,270.31 115.54,257.37" fill="url(#angee-fcd34de6b4009a7d0a-left)"/>
</svg>